<svg data-v-fde0c5aa="" xmlns="http://www.w3.org/2000/svg" viewBox="0 0 300 300" class="font"><!----><defs data-v-fde0c5aa=""><linearGradient data-v-fde0c5aa="" gradientTransform="rotate(25)" id="9f629fbd-7e89-4b1e-9ef2-1fb59c2667ff" x1="0%" y1="0%" x2="100%" y2="0%"><stop data-v-fde0c5aa="" offset="0%" stop-color="#843D48" stop-opacity="1"></stop><stop data-v-fde0c5aa="" offset="100%" stop-color="#CD978E" stop-opacity="1"></stop></linearGradient></defs><rect data-v-fde0c5aa="" fill="url(#9f629fbd-7e89-4b1e-9ef2-1fb59c2667ff)" x="0" y="0" width="300px" height="300px" class="logo-background-square"></rect><defs data-v-fde0c5aa=""><!----></defs><g data-v-fde0c5aa="" id="77b50ee9-9dd1-4b6d-bcbd-820d665203f5" fill="#ffffff" transform="matrix(11.473678105957235,0,0,11.473678105957235,39.5410528432772,88.2634182243732)"><path d="M5.40 10.37L5.00 8.81L2.91 8.81L2.52 10.37L2.65 10.50L0.04 10.50L0.20 10.37L2.74 0.31L2.62 0.18L5.28 0.18L5.14 0.31L7.73 10.37L7.85 10.50L5.26 10.50L5.40 10.37ZM3.96 3.42L3.93 3.42L3.39 6.69L4.51 6.69L3.96 3.42ZM8.74 2.44L8.62 2.44L8.74 2.44ZM8.62 2.44L8.74 2.44L9.66 3.05L9.66 3.05Q10.00 2.69 10.45 2.55L10.45 2.55L10.45 2.55Q10.91 2.41 11.35 2.41L11.35 2.41L11.35 2.41Q11.77 2.41 12.24 2.54L12.24 2.54L12.24 2.54Q12.71 2.67 13.31 3.09L13.31 3.09L13.89 3.58L12.64 5.29L12.64 5.29Q12.28 4.94 12.00 4.79L12.00 4.79L12.00 4.79Q11.72 4.65 11.50 4.63L11.50 4.63L11.50 4.63Q11.28 4.61 11.13 4.67L11.13 4.67L11.13 4.67Q10.98 4.73 10.86 4.80L10.86 4.80L10.86 10.37L10.99 10.50L8.50 10.50L8.62 10.37L8.62 2.44ZM16.42 5.24L16.42 5.24L16.42 5.24Q16.69 5.35 17.17 5.54L17.17 5.54L17.17 5.54Q17.65 5.73 18.12 6.06L18.12 6.06L18.12 6.06Q18.59 6.40 18.92 6.89L18.92 6.89L18.92 6.89Q19.25 7.38 19.21 8.09L19.21 8.09L19.21 8.09Q19.17 8.82 18.91 9.32L18.91 9.32L18.91 9.32Q18.66 9.81 18.26 10.11L18.26 10.11L18.26 10.11Q17.86 10.40 17.37 10.51L17.37 10.51L17.37 10.51Q16.87 10.61 16.32 10.57L16.32 10.57L16.32 10.57Q15.88 10.54 15.27 10.42L15.27 10.42L15.27 10.42Q14.66 10.30 14.04 9.98L14.04 9.98L14.71 7.85L14.71 7.85Q14.91 7.97 15.19 8.06L15.19 8.06L15.19 8.06Q15.47 8.15 15.76 8.22L15.76 8.22L15.76 8.22Q16.06 8.29 16.35 8.33L16.35 8.33L16.35 8.33Q16.65 8.37 16.87 8.37L16.87 8.37L16.87 8.37Q17.02 8.12 16.95 7.80L16.95 7.80L16.95 7.80Q16.77 7.71 16.48 7.59L16.48 7.59L16.48 7.59Q16.20 7.48 15.88 7.31L15.88 7.31L15.88 7.31Q15.57 7.14 15.25 6.90L15.25 6.90L15.25 6.90Q14.94 6.66 14.70 6.36L14.70 6.36L14.70 6.36Q14.46 6.05 14.33 5.65L14.33 5.65L14.33 5.65Q14.20 5.25 14.24 4.75L14.24 4.75L14.24 4.75Q14.28 4.31 14.40 3.98L14.40 3.98L14.40 3.98Q14.52 3.64 14.69 3.40L14.69 3.40L14.69 3.40Q14.85 3.16 15.04 3.00L15.04 3.00L15.04 3.00Q15.23 2.83 15.41 2.73L15.41 2.73L15.41 2.73Q15.88 2.45 16.42 2.40L16.42 2.40L16.42 2.40Q16.97 2.35 17.46 2.43L17.46 2.43L17.46 2.43Q17.96 2.51 18.35 2.63L18.35 2.63L18.35 2.63Q18.75 2.76 18.93 2.84L18.93 2.84L18.06 4.91L18.06 4.91Q17.95 4.87 17.75 4.82L17.75 4.82L17.75 4.82Q17.56 4.76 17.35 4.72L17.35 4.72L17.35 4.72Q17.14 4.68 16.93 4.64L16.93 4.64L16.93 4.64Q16.72 4.61 16.59 4.61L16.59 4.61L16.59 4.61Q16.53 4.61 16.48 4.68L16.48 4.68L16.48 4.68Q16.42 4.76 16.39 4.87L16.39 4.87L16.39 4.87Q16.35 4.97 16.35 5.08L16.35 5.08L16.35 5.08Q16.35 5.18 16.42 5.24Z"></path></g><!----><!----></svg>